<svg width="35" height="34" viewBox="0 0 35 34" fill="none" xmlns="http://www.w3.org/2000/svg">
<rect x="3.01172" y="3" width="28.1642" height="28" rx="10" fill="#9A9A9A"/>
<rect x="0.5" y="0.5" width="33.1877" height="33" rx="10.5" stroke="#4D4949" stroke-dasharray="2 2"/>
<path d="M21.4688 14.6364L19.3644 12.5324L12.1816 19.7152C11.7378 20.1589 11.4337 20.7228 11.3069 21.3374L11.0033 22.807C10.9979 22.8331 10.9991 22.8602 11.0068 22.8857C11.0145 22.9112 11.0284 22.9344 11.0473 22.9532C11.0662 22.972 11.0894 22.9858 11.115 22.9934C11.1405 23.0009 11.1676 23.002 11.1936 22.9966L12.6619 22.6938C13.2768 22.5671 13.8411 22.2631 14.2851 21.8192L21.4688 14.6364ZM22.2487 11.3526C22.1369 11.2408 22.0041 11.1522 21.8581 11.0916C21.712 11.0311 21.5554 11 21.3973 11C21.2392 11 21.0826 11.0311 20.9365 11.0916C20.7904 11.1522 20.6577 11.2408 20.5459 11.3526L20.1202 11.7775L22.2246 13.8807L22.6479 13.4575C22.8734 13.2313 23 12.9249 23 12.6054C23 12.286 22.8734 11.9796 22.6479 11.7534L22.2487 11.3526Z" fill="white"/>
</svg>
