<svg width="35" height="34" viewBox="0 0 35 34" fill="none" xmlns="http://www.w3.org/2000/svg">
<rect x="3.01172" y="3" width="28.1642" height="28" rx="10" fill="#48FD48"/>
<path d="M14.9423 20.0021L12.59 16.8607C12.5036 16.7452 12.4009 16.6535 12.2879 16.591C12.1749 16.5285 12.0537 16.4963 11.9314 16.4963C11.8091 16.4963 11.688 16.5285 11.575 16.591C11.462 16.6535 11.3593 16.7452 11.2728 16.8607C11.1863 16.9762 11.1177 17.1133 11.0709 17.2642C11.0241 17.4152 11 17.5769 11 17.7403C11 17.9036 11.0241 18.0654 11.0709 18.2163C11.1177 18.3672 11.1863 18.5044 11.2728 18.6199L14.2774 22.6325C14.4538 22.8678 14.6929 23 14.9423 23C15.1916 23 15.4307 22.8678 15.6071 22.6325L22.7516 13.091C22.9154 12.8548 23.0044 12.5431 22.9998 12.2212C22.9952 11.8993 22.8975 11.5923 22.727 11.3646C22.5565 11.137 22.3267 11.0064 22.0856 11.0002C21.8446 10.9941 21.6112 11.1129 21.4344 11.3318L14.9423 20.0021Z" fill="white"/>
<rect x="0.5" y="0.5" width="33.1877" height="33" rx="10.5" stroke="#4D4949" stroke-dasharray="2 2"/>
</svg>
