<svg width="35" height="34" viewBox="0 0 35 34" fill="none" xmlns="http://www.w3.org/2000/svg">
<rect x="3" y="3" width="28.1642" height="28" rx="10" fill="white"/>
<rect x="0.5" y="0.5" width="33.1877" height="33" rx="10.5" stroke="#4D4949" stroke-dasharray="2 2"/>
<path fill-rule="evenodd" clip-rule="evenodd" d="M22.3615 11.6385C21.5102 10.7872 20.1299 10.7872 19.2786 11.6385L16.5502 14.3669L15.3586 13.1752C15.2458 13.0636 15.0935 13.0011 14.9348 13.0015C14.7762 13.0019 14.6241 13.0651 14.5119 13.1773C14.3997 13.2895 14.3365 13.4415 14.3361 13.6002C14.3357 13.7589 14.3982 13.9112 14.5098 14.024L15.7015 15.2156L12.7893 18.1278C12.5742 18.343 12.4452 18.4718 12.3262 18.6084C11.8434 19.1626 11.4818 19.8117 11.2648 20.514C11.1968 20.734 11.1473 20.9594 11.0946 21.1833L11.0824 21.2347C11.0417 21.4062 10.9968 21.595 11.0002 21.7594C11.0143 22.4386 11.5615 22.9858 12.2406 22.9998C12.405 23.0032 12.5939 22.9583 12.7653 22.9176L12.8168 22.9054C13.0407 22.8527 13.2661 22.8032 13.486 22.7352C14.1883 22.5182 14.8374 22.1567 15.3916 21.6738C15.5196 21.5622 15.6409 21.442 15.8329 21.25C16.8168 20.2664 17.8006 19.2824 18.7844 18.2986L19.9761 19.4903C20.0887 19.6028 20.2413 19.6661 20.4005 19.6661C20.5597 19.6661 20.7123 19.6028 20.8249 19.4903C20.9375 19.3777 21.0007 19.2251 21.0007 19.0659C21.0007 18.9067 20.9375 18.7541 20.8249 18.6415L19.6332 17.4498L22.3615 14.7214C23.2128 13.8701 23.2128 12.4898 22.3615 11.6385ZM16.5502 16.0645L13.6544 18.9603C13.4182 19.1966 13.3199 19.2952 13.2312 19.397C12.8584 19.825 12.5792 20.3262 12.4116 20.8685C12.3718 20.9974 12.3396 21.1329 12.2631 21.4582C12.2352 21.5768 12.2183 21.6491 12.2078 21.7027C12.1938 21.7748 12.2336 21.8047 12.2974 21.7922C12.351 21.7818 12.4234 21.7649 12.5419 21.737C12.9204 21.648 13.0456 21.6171 13.1948 21.5684C13.7131 21.3989 14.192 21.127 14.603 20.7688C14.7048 20.6802 14.8035 20.5819 15.0398 20.3456L17.9356 17.4498L16.5502 16.0645Z" fill="black"/>
</svg>
